<svg width="512" height="512" viewBox="0 0 512 512" xmlns="http://www.w3.org/2000/svg">
  <!-- Fondo azul agua -->
  <rect width="512" height="512" fill="#0288D1"/>
  
  <!-- Ondas de agua -->
  <path d="M0 380 Q 128 360, 256 380 T 512 380 L 512 512 L 0 512 Z" fill="#01579B" opacity="0.3"/>
  <path d="M0 420 Q 128 400, 256 420 T 512 420 L 512 512 L 0 512 Z" fill="#01579B" opacity="0.2"/>
  
  <!-- Nadador (persona) -->
  <!-- Cabeza -->
  <circle cx="280" cy="180" r="40" fill="#FFFFFF"/>
  
  <!-- Gafas -->
  <ellipse cx="280" cy="185" rx="35" ry="8" fill="#263238"/>
  
  <!-- Cuerpo -->
  <ellipse cx="240" cy="220" rx="80" ry="35" fill="#FFFFFF"/>
  
  <!-- Brazo extendido -->
  <ellipse cx="160" cy="200" rx="60" ry="20" fill="#FFFFFF" transform="rotate(-20 160 200)"/>
  
  <!-- Brazo en agua -->
  <ellipse cx="320" cy="240" rx="50" ry="18" fill="#E3F2FD" transform="rotate(15 320 240)"/>
  
  <!-- Piernas -->
  <ellipse cx="200" cy="260" rx="45" ry="20" fill="#E3F2FD" transform="rotate(5 200 260)"/>
  
  <!-- Salpicaduras -->
  <circle cx="140" cy="190" r="8" fill="#FFFFFF" opacity="0.7"/>
  <circle cx="125" cy="205" r="6" fill="#FFFFFF" opacity="0.5"/>
  <circle cx="155" cy="185" r="5" fill="#FFFFFF" opacity="0.6"/>
  <circle cx="350" cy="235" r="7" fill="#FFFFFF" opacity="0.6"/>
  <circle cx="365" cy="245" r="5" fill="#FFFFFF" opacity="0.5"/>
</svg>
